<?xml version="1.0" encoding="UTF-8"?>
<svg version="1.1" xmlns="http://www.w3.org/2000/svg" width="250" height="250">
<path d="M0 0 C82.5 0 165 0 250 0 C250 82.5 250 165 250 250 C167.5 250 85 250 0 250 C0 167.5 0 85 0 0 Z M5 5 C5 84.2 5 163.4 5 245 C84.2 245 163.4 245 245 245 C245 165.8 245 86.6 245 5 C165.8 5 86.6 5 5 5 Z " fill="#040707" transform="translate(0,0)"/>
<path d="M0 0 C2.31 0 4.62 0 7 0 C7 2.97 7 5.94 7 9 C9.64 9 12.28 9 15 9 C15 6.03 15 3.06 15 0 C17.31 0 19.62 0 22 0 C22 8.25 22 16.5 22 25 C19.69 25 17.38 25 15 25 C15 21.7 15 18.4 15 15 C12.36 15 9.72 15 7 15 C7 18.3 7 21.6 7 25 C4.69 25 2.38 25 0 25 C0 16.75 0 8.5 0 0 Z " fill="#040707" transform="translate(52,203)"/>
<path d="M0 0 C5.40777035 1.08155407 6.97221916 2.59870006 10.3125 6.5625 C10.76689453 7.08263672 11.22128906 7.60277344 11.68945312 8.13867188 C12.80339243 9.41677066 13.90314888 10.70720655 15 12 C15.33 8.37 15.66 4.74 16 1 C17.98 1 19.96 1 22 1 C22 9.25 22 17.5 22 26 C17 26 17 26 14.578125 23.62890625 C13.80984375 22.61699219 13.0415625 21.60507813 12.25 20.5625 C11.47140625 19.55316406 10.6928125 18.54382813 9.890625 17.50390625 C9.26671875 16.67761719 8.6428125 15.85132813 8 15 C7.67 14.67 7.34 14.34 7 14 C6.67 17.96 6.34 21.92 6 26 C4.02 26 2.04 26 0 26 C0 17.42 0 8.84 0 0 Z " fill="#040707" transform="translate(41,164)"/>
<path d="M0 0 C3.60937158 1.80468579 5.58066396 3.41834033 7.9375 6.6875 C9.61092614 11.90465207 9.32674308 16.14802473 7.0078125 21.1328125 C4.77979892 24.38914005 3.02018013 25.75856202 -0.85546875 26.67578125 C-5.02269647 26.93979195 -8.44446249 26.91027751 -12.109375 24.765625 C-15.39676521 21.47823479 -16.37625523 18.48283348 -16.5625 13.875 C-16.28749239 9.84155508 -15.7408003 7.10624034 -13 4 C-8.6514344 0.34325166 -5.66352208 -0.80907458 0 0 Z M-7.75 7.0625 C-9.70929117 10.09940131 -10 12.40474628 -10 16 C-8.0405988 19.1264113 -8.0405988 19.1264113 -5 21 C-2.30371421 21.17778312 -2.30371421 21.17778312 0 20 C2.47342266 16.28986601 2.38503486 14.38939738 2 10 C0.98009206 7.49901018 0.98009206 7.49901018 -1 6 C-3.82445123 5.50572103 -5.2893839 5.56855451 -7.75 7.0625 Z " fill="#040707" transform="translate(197,202)"/>
<path d="M0 0 C13.37517292 -0.49537677 13.37517292 -0.49537677 16.39453125 1.8984375 C18.91768383 5.20125037 18.91768383 5.20125037 19 8 C18.06553465 10.03144641 17.06775224 12.03533587 16 14 C15.78528808 16.26251887 15.78528808 16.26251887 18 18.375 C20 21 20 21 20 25 C17.69 25 15.38 25 13 25 C9 18.25 9 18.25 9 16 C8.34 16 7.68 16 7 16 C7 18.97 7 21.94 7 25 C4.69 25 2.38 25 0 25 C0 16.75 0 8.5 0 0 Z M7 5 C7 6.98 7 8.96 7 11 C8.65 10.67 10.3 10.34 12 10 C12 8.68 12 7.36 12 6 C10.35 5.67 8.7 5.34 7 5 Z " fill="#040707" transform="translate(51,127)"/>
<path d="M0 0 C2.2734375 1.0234375 2.2734375 1.0234375 4 2 C3.67 3.98 3.34 5.96 3 8 C1.96939453 7.85691406 1.96939453 7.85691406 0.91796875 7.7109375 C0.01691406 7.60007813 -0.88414062 7.48921875 -1.8125 7.375 C-3.15248047 7.20097656 -3.15248047 7.20097656 -4.51953125 7.0234375 C-7.25690391 6.76499257 -7.25690391 6.76499257 -10 9 C-11.02815132 11.92627684 -11.06006287 13.7063593 -10.4375 16.75 C-9.14094721 19.34151958 -9.14094721 19.34151958 -5.875 19.8125 C-4.92625 19.874375 -3.9775 19.93625 -3 20 C-2.67 17.69 -2.34 15.38 -2 13 C0.31 13 2.62 13 5 13 C4.91306859 14.79258558 4.80489496 16.58415144 4.6875 18.375 C4.62949219 19.37273437 4.57148438 20.37046875 4.51171875 21.3984375 C4.34285156 22.25695312 4.17398438 23.11546875 4 24 C-0.66540818 27.11027212 -5.53695405 26.60536455 -11 26 C-14.56531075 24.00342598 -16.79707285 21.9368525 -18 18 C-18.45042231 12.41476332 -18.25122574 8.76846442 -15 4 C-10.35604133 -0.2016769 -6.03715949 -0.94399221 0 0 Z " fill="#040707" transform="translate(170,202)"/>
<path d="M0 0 C1.65 0 3.3 0 5 0 C6.10450255 2.52068663 7.20861043 5.04154494 8.3125 7.5625 C8.7755957 8.61920898 8.7755957 8.61920898 9.24804688 9.69726562 C9.86596496 11.10872061 10.48201768 12.52099372 11.09619141 13.93408203 C11.68849348 15.28796105 12.28944426 16.6380966 12.89990234 17.98388672 C14.18103889 20.84667332 15 22.82395476 15 26 C12.69 26 10.38 26 8 26 C7.34 24.35 6.68 22.7 6 21 C3.36 20.67 0.72 20.34 -2 20 C-2.66 21.98 -3.32 23.96 -4 26 C-5.98 26 -7.96 26 -10 26 C-9.45080664 19.98882908 -6.95138069 15.02233648 -4.4375 9.625 C-4.01275391 8.69816406 -3.58800781 7.77132812 -3.15039062 6.81640625 C-2.10663024 4.54124315 -1.05636818 2.26932965 0 0 Z M2 11 C1.67 12.32 1.34 13.64 1 15 C1.99 14.67 2.98 14.34 4 14 C3.34 13.01 2.68 12.02 2 11 Z " fill="#040707" transform="translate(31,126)"/>
<path d="M0 0 C1.65 0 3.3 0 5 0 C6.67557981 3.76693513 8.33891867 7.53915174 10 11.3125 C10.47695312 12.38435547 10.95390625 13.45621094 11.4453125 14.56054688 C12.12207031 16.10258789 12.12207031 16.10258789 12.8125 17.67578125 C13.23144531 18.62364502 13.65039062 19.57150879 14.08203125 20.5480957 C15 23 15 23 15 26 C12.69 26 10.38 26 8 26 C7.34 24.35 6.68 22.7 6 21 C3.36 20.67 0.72 20.34 -2 20 C-2.33 21.98 -2.66 23.96 -3 26 C-5.31 26 -7.62 26 -10 26 C-9.385789 22.38549563 -8.39633734 19.27609839 -6.93359375 15.91796875 C-6.53076172 14.98662109 -6.12792969 14.05527344 -5.71289062 13.09570312 C-5.29201172 12.13599609 -4.87113281 11.17628906 -4.4375 10.1875 C-4.01275391 9.20845703 -3.58800781 8.22941406 -3.15039062 7.22070312 C-2.10460494 4.81187093 -1.05435216 2.40509197 0 0 Z M2 11 C1.67 12.32 1.34 13.64 1 15 C1.99 14.67 2.98 14.34 4 14 C3.34 13.01 2.68 12.02 2 11 Z " fill="#040707" transform="translate(133,202)"/>
<path d="M0 0 C5.28 0 10.56 0 16 0 C16 1.98 16 3.96 16 6 C13.03 6 10.06 6 7 6 C7 7.32 7 8.64 7 10 C9.64 10 12.28 10 15 10 C15 11.98 15 13.96 15 16 C12.69 16 10.38 16 8 16 C7.67 17.32 7.34 18.64 7 20 C10.3 20 13.6 20 17 20 C17 21.98 17 23.96 17 26 C11.39 26 5.78 26 0 26 C0 17.42 0 8.84 0 0 Z " fill="#040707" transform="translate(211,164)"/>
<path d="M0 0 C0.495 0.33 0.99 0.66 1.5 1 C1.17 2.98 0.84 4.96 0.5 7 C-0.11488281 6.89300781 -0.72976562 6.78601563 -1.36328125 6.67578125 C-2.17152344 6.55589844 -2.97976562 6.43601563 -3.8125 6.3125 C-5.01326172 6.12107422 -5.01326172 6.12107422 -6.23828125 5.92578125 C-8.5548421 5.7940309 -8.5548421 5.7940309 -10.27734375 7.2578125 C-12.24438795 10.06069337 -11.74090545 12.68755013 -11.5 16 C-11.17 16.66 -10.84 17.32 -10.5 18 C-7.65939875 18.92127608 -6.14610185 19.28504493 -3.375 18.0625 C-2.75625 17.711875 -2.1375 17.36125 -1.5 17 C-0.51 17 0.48 17 1.5 17 C1.6875 19.875 1.6875 19.875 1.5 23 C-2.95577347 25.97051564 -7.27442606 25.62737491 -12.5 25 C-16.20734915 22.88151477 -17.86340454 20.86831655 -19.5 17 C-20.22798272 12.34429655 -19.92814156 8.85628313 -17.8125 4.625 C-12.82008602 -1.04206451 -7.29552204 -2.91820881 0 0 Z " fill="#040707" transform="translate(42.5,203)"/>
<path d="M0 0 C0.99 0.66 1.98 1.32 3 2 C3.1875 5.125 3.1875 5.125 3 8 C2.39671875 7.88140625 1.7934375 7.7628125 1.171875 7.640625 C-3.92179857 6.74804486 -3.92179857 6.74804486 -8.625 8.5 C-10.53242696 11.96804901 -9.86979735 14.23087813 -9 18 C-6.76740335 19.22772827 -6.76740335 19.22772827 -4 20 C-1.37625345 19.18391223 -1.37625345 19.18391223 1 18 C1.99 18 2.98 18 4 18 C3.25 23.75 3.25 23.75 1 26 C-3.36133949 26.67700531 -8.02830107 27.02391315 -12.0234375 24.94921875 C-15.01442798 22.47618028 -16.83023894 20.48419669 -17.2734375 16.609375 C-17.58144695 7.9377243 -17.58144695 7.9377243 -14.75 4.4375 C-9.68485449 -0.05206079 -6.67851976 -0.424033 0 0 Z " fill="#040707" transform="translate(115,202)"/>
<path d="M0 0 C1.65 3.96 3.3 7.92 5 12 C7.15266842 9.84733158 7.93474462 8.15226256 9.125 5.375 C9.47820312 4.55773437 9.83140625 3.74046875 10.1953125 2.8984375 C10.46085937 2.27195313 10.72640625 1.64546875 11 1 C13.31 1 15.62 1 18 1 C14.81640303 9.3992771 11.50236667 17.72845318 8 26 C6.35 26 4.7 26 3 26 C1.32742736 22.21091124 -0.33705115 18.41832115 -2 14.625 C-2.71542969 13.00464844 -2.71542969 13.00464844 -3.4453125 11.3515625 C-3.89648438 10.3203125 -4.34765625 9.2890625 -4.8125 8.2265625 C-5.23144531 7.27346191 -5.65039062 6.32036133 -6.08203125 5.33837891 C-7 3 -7 3 -7 1 C-2.25 0 -2.25 0 0 0 Z " fill="#040707" transform="translate(163,164)"/>
<path d="M0 0 C2.4375 1 2.4375 1 4 2 C3.67 3.65 3.34 5.3 3 7 C0.36 6.67 -2.28 6.34 -5 6 C-5 6.99 -5 7.98 -5 9 C-4.2575 9.2475 -3.515 9.495 -2.75 9.75 C0.86529709 11.39331686 3.14809345 13.2961869 4.9375 16.875 C5.03353874 20.14031702 3.65052303 22.24912829 2 25 C-0.35270593 26.17635297 -1.820752 26.13359359 -4.4375 26.125 C-5.61119141 26.12886719 -5.61119141 26.12886719 -6.80859375 26.1328125 C-9 26 -9 26 -12 25 C-12 22.69 -12 20.38 -12 18 C-7.05 18.99 -7.05 18.99 -2 20 C-4.13615573 17.78472739 -6.18417227 15.86722464 -8.6875 14.0625 C-11 12 -11 12 -11.9375 9.5625 C-12.0123008 6.49566719 -11.45547006 4.69261962 -10 2 C-6.29873141 -0.46751239 -4.37776468 -0.30721156 0 0 Z " fill="#040707" transform="translate(83,164)"/>
<path d="M0 0 C6.93 0 13.86 0 21 0 C21 1.65 21 3.3 21 5 C18.69 5 16.38 5 14 5 C14 11.6 14 18.2 14 25 C11.69 25 9.38 25 7 25 C7 18.4 7 11.8 7 5 C4.69 5 2.38 5 0 5 C0 3.35 0 1.7 0 0 Z " fill="#040707" transform="translate(75,127)"/>
<path d="M0 0 C7.26 0 14.52 0 22 0 C22 1.98 22 3.96 22 6 C19.36 6 16.72 6 14 6 C14.33 12.6 14.66 19.2 15 26 C12.69 26 10.38 26 8 26 C8 19.4 8 12.8 8 6 C5.36 6 2.72 6 0 6 C0 4.02 0 2.04 0 0 Z " fill="#040707" transform="translate(183,164)"/>
<path d="M0 0 C7.26 0 14.52 0 22 0 C22 1.98 22 3.96 22 6 C19.36 6 16.72 6 14 6 C14 12.6 14 19.2 14 26 C11.69 26 9.38 26 7 26 C7.33 19.4 7.66 12.8 8 6 C5.36 6 2.72 6 0 6 C0 4.02 0 2.04 0 0 Z " fill="#040707" transform="translate(92,164)"/>
<path d="M0 0 C7.26 0 14.52 0 22 0 C22 1.98 22 3.96 22 6 C19.36 6 16.72 6 14 6 C14 12.6 14 19.2 14 26 C12.02 26 10.04 26 8 26 C8 19.4 8 12.8 8 6 C5.36 6 2.72 6 0 6 C0 4.02 0 2.04 0 0 Z " fill="#040707" transform="translate(131,164)"/>
<path d="M0 0 C2.31 0 4.62 0 7 0 C7 8.25 7 16.5 7 25 C4.69 25 2.38 25 0 25 C0 16.75 0 8.5 0 0 Z " fill="#040707" transform="translate(119,165)"/>
<path d="M0 0 C2.31 0 4.62 0 7 0 C7 8.25 7 16.5 7 25 C4.69 25 2.38 25 0 25 C0 16.75 0 8.5 0 0 Z " fill="#040707" transform="translate(83,203)"/>
<path d="M0 0 C1.98 0 3.96 0 6 0 C6 8.25 6 16.5 6 25 C4.02 25 2.04 25 0 25 C0 16.75 0 8.5 0 0 Z " fill="#040707" transform="translate(25,165)"/>
</svg>
